PathFileType	4	(X/Y/Z)	c:/Users/goper/Files/vsCode/490R/osim_files/C07/C07_Fast_03.trc
DataRate	CameraRate	NumFrames	NumMarkers	Units                	OrigDataRate	OrigDataStartFrame	OrigNumFrames
250.00	250.00	4	36	mm	250.0	1645	3288
                Frame#	Time	LPSIS			LASIS			LTH1			LTH2			LTH3			LTH4			LLFE			LMFE			LSH1			LSH2			LSH3			LSH4			LLMAL			LMMAL			LCAL			LMTP5			LTOE			LMTP1			RPSIS			RASIS			RTH1			RTH2			RTH3			RTH4			RLFE			RMFE			RSH1			RSH2			RSH3			RSH4			RLMAL			RMMAL			RCAL			RMTP1			RTOE			RMTP5		
		X1	Y1	Z1	X2	Y2	Z2	X3	Y3	Z3	X4	Y4	Z4	X5	Y5	Z5	X6	Y6	Z6	X7	Y7	Z7	X8	Y8	Z8	X9	Y9	Z9	X10	Y10	Z10	X11	Y11	Z11	X12	Y12	Z12	X13	Y13	Z13	X14	Y14	Z14	X15	Y15	Z15	X16	Y16	Z16	X17	Y17	Z17	X18	Y18	Z18	X19	Y19	Z19	X20	Y20	Z20	X21	Y21	Z21	X22	Y22	Z22	X23	Y23	Z23	X24	Y24	Z24	X25	Y25	Z25	X26	Y26	Z26	X27	Y27	Z27	X28	Y28	Z28	X29	Y29	Z29	X30	Y30	Z30	X31	Y31	Z31	X32	Y32	Z32	X33	Y33	Z33	X34	Y34	Z34	X35	Y35	Z35	X36	Y36	Z36

1645	6.57600	105.61861	1011.64368	322.75500	-67.80792	990.51477	392.23911	-28.34123	787.56818	443.98758	-51.02683	711.77539	438.70172	-71.25113	640.78949	424.21436	-125.38061	736.39288	417.33737	-75.88304	517.75409	398.59021	-73.86601	507.59384	279.06128	-44.15550	328.52792	406.42191	-26.39867	285.75070	390.85657	-83.62548	333.18463	392.82007	-79.02592	289.11664	384.46271	-8.34979	108.94609	343.78876	-34.32030	133.62209	273.04144	53.26368	51.95720	296.08777	-130.39839	39.71693	365.77823	-186.87044	51.02211	311.77060	-154.48689	42.19792	260.31274	105.26868	1013.58215	222.03116	-51.69188	976.34454	139.50656	-24.47329	821.27783	86.72260	-44.06530	744.72699	80.47506	-61.99099	664.74847	82.28715	-114.71848	759.85724	107.91695	-78.13223	497.79404	102.14198	-90.65700	500.96475	220.07262	88.20234	438.53946	103.03606	111.61182	386.92569	97.17445	51.75572	388.78156	96.51141	89.08430	364.76700	100.33096	261.43539	305.39105	143.91426	233.25967	279.22757	217.24333	320.73447	327.04825	199.69501	256.93216	126.26566	211.61896	240.28967	112.64153	160.14314	280.12994	151.89841	106.60281
1646	6.58000	101.08904	1012.71271	322.73770	-71.96467	991.15454	392.89108	-30.95524	788.33246	444.21985	-53.13164	712.40051	439.04044	-72.93514	641.43311	424.64456	-127.64558	736.41992	418.07675	-76.29426	518.10736	398.98087	-75.05851	507.81158	279.40549	-43.68523	328.79196	406.57983	-26.06641	286.13025	390.94504	-83.42617	333.43185	393.37216	-78.73844	289.29886	385.05682	-8.34693	109.12594	343.86798	-34.49059	133.75093	273.13797	53.23196	52.11209	296.03220	-130.43858	39.74719	365.79529	-186.91554	51.03613	311.81775	-154.43158	42.21384	260.36139	100.54892	1014.76624	222.04497	-56.19061	977.78906	139.78276	-30.73507	822.69867	86.82066	-51.14538	746.31024	80.64503	-69.66055	666.66437	82.24848	-121.49007	762.21747	108.12594	-87.79127	499.98065	102.24960	-100.27994	503.31473	220.26096	77.98161	439.67810	103.39811	101.11356	387.99429	97.07179	41.17524	390.26447	96.70954	78.23325	365.81387	100.52423	250.31470	304.98233	143.96629	221.96326	279.21100	217.33119	310.56073	325.36230	199.21181	242.83003	125.95012	211.16751	225.37315	112.78235	159.87399	265.39813	151.42104	105.92882
1647	6.58400	96.70913	1013.74152	322.63745	-76.11952	991.93286	393.44446	-33.49864	789.06293	444.40289	-54.96342	712.93341	439.40369	-74.19341	641.80676	425.15314	-129.87427	736.40540	418.81238	-76.52038	518.43884	399.25082	-74.71841	508.04099	279.22031	-43.48768	329.22861	406.77359	-25.73386	286.56949	391.03079	-83.20619	333.67554	393.81018	-78.50131	289.58932	385.44946	-8.36983	109.30814	343.88467	-34.66331	133.96996	273.17920	53.17620	52.13801	295.94202	-130.42253	39.73912	365.79471	-186.90239	51.03386	311.79025	-154.42566	42.21621	260.40100	95.94111	1015.99005	222.02008	-61.34956	979.01483	140.56546	-36.87061	824.22571	86.91965	-58.04096	748.04517	80.69266	-77.53030	668.41388	82.60622	-128.34100	764.57452	108.45744	-97.28304	502.13062	102.33000	-109.91833	505.70984	220.47710	67.95185	440.61499	103.56155	90.46699	388.70532	97.23078	30.63793	391.55368	96.93448	67.62132	366.77435	100.72363	239.01331	304.24243	144.07965	210.85263	278.90271	217.53487	300.26385	323.41171	198.92868	228.66884	125.42839	210.71643	210.48239	112.77712	159.46675	250.61182	150.87447	105.32990
1648	6.58800	92.16977	1014.78412	322.52090	-80.39421	992.58325	394.00610	-36.11282	789.79596	444.57751	-57.08124	713.53870	439.70410	-76.02044	642.03046	425.51102	-132.06529	736.33899	419.55637	-76.84292	518.80096	399.50073	-77.04253	508.26895	279.83084	-43.39444	329.78860	406.90921	-25.41719	287.07504	391.12030	-82.90117	333.96802	394.21307	-78.29988	289.92728	385.81650	-8.40176	109.50500	343.88867	-34.88744	134.15567	273.24557	53.12032	52.28746	295.91962	-130.45445	39.79104	365.81747	-186.87219	51.05342	311.80103	-154.43570	42.26082	260.40726	91.29414	1017.04669	221.96027	-66.14012	980.35986	140.89253	-43.06096	825.71857	87.04538	-65.57814	749.31970	81.66568	-85.50209	670.07520	83.33607	-134.75677	766.93060	108.84370	-106.77533	504.23099	102.43214	-119.53047	508.10181	220.59065	57.91728	441.38437	103.74404	80.01069	389.21176	97.22134	20.16984	392.65100	97.16994	57.05070	367.55719	101.30119	227.70911	303.36533	144.17955	199.40927	278.37488	217.55275	289.63751	321.18793	198.71172	214.24306	124.62103	210.15012	195.51297	112.60275	159.14229	235.95197	150.09355	104.75043
